<?xml version="1.0" encoding="UTF-8"?>
<svg xmlns="http://www.w3.org/2000/svg" version="1.1" viewBox="0 0 247 247">
  <defs>
    <style>
      .cls-1 {
        fill: #fff;
      }
    </style>
  </defs>
  <!-- Generator: Adobe Illustrator 28.7.1, SVG Export Plug-In . SVG Version: 1.2.0 Build 142)  -->
  <g>
    <g id="Camada_1">
      <path class="cls-1" d="M166.8,60.7h-96c-2.5,0-4.6,2-4.6,4.6s2,4.6,4.6,4.6h96c6.4,0,11.6,5.2,11.6,11.6v59c0,6.4-5.2,11.6-11.6,11.6h-95.6c-6.4,0-11.6-5.2-11.6-11.6v-59.5c0-2.5-2-4.6-4.6-4.6s-4.6,2-4.6,4.6v59.5c0,11.5,9.3,20.8,20.8,20.8h95.6c11.4,0,20.8-9.3,20.8-20.8v-59c0-11.5-9.3-20.8-20.8-20.8ZM151.4,125.6c-2.8,0-5-2.3-5-5s-2.1-4.6-4.6-4.6-4.6,2-4.6,4.6c0,6.2,4,11.4,9.6,13.3v2.6c0,2.5,2,4.6,4.6,4.6s4.6-2.1,4.6-4.6v-2.6c5.6-1.9,9.6-7.1,9.6-13.3s-6.3-14.2-14.2-14.2-5-2.3-5-5,2.2-5,5-5,5,2.3,5,5,2,4.6,4.6,4.6,4.6-2.1,4.6-4.6c0-6.2-4-11.4-9.6-13.3v-2.6c0-2.5-2-4.6-4.6-4.6s-4.6,2-4.6,4.6v2.6c-5.6,1.9-9.6,7.1-9.6,13.3s6.4,14.2,14.2,14.2,5,2.3,5,5-2.3,5-5,5ZM73.3,138.4h45.7c2.5,0,4.6-2.1,4.6-4.6s-2-4.6-4.6-4.6h-45.7c-2.5,0-4.6,2.1-4.6,4.6s2,4.6,4.6,4.6ZM73.3,92.7h45.7c2.5,0,4.6-2,4.6-4.6s-2-4.6-4.6-4.6h-45.7c-2.5,0-4.6,2-4.6,4.6s2,4.6,4.6,4.6ZM73.3,115.6h45.7c2.5,0,4.6-2,4.6-4.6s-2-4.6-4.6-4.6h-45.7c-2.5,0-4.6,2-4.6,4.6s2,4.6,4.6,4.6Z"/>
    </g>
  </g>
</svg>